<?xml version="1.0" encoding="UTF-8"?>
<svg width="16px" height="16px" viewBox="0 0 16 16" version="1.1" xmlns="http://www.w3.org/2000/svg" xmlns:xlink="http://www.w3.org/1999/xlink">
    <!-- Generator: Sketch 52.2 (67145) - http://www.bohemiancoding.com/sketch -->
    <title>diff</title>
    <desc>Created with Sketch.</desc>
    <g id="Page-1" stroke="none" stroke-width="1" fill="none" fill-rule="evenodd">
        <g id="Artboard" transform="translate(-63.000000, -4.000000)" fill="currentColor" fill-rule="nonzero">
            <path d="M63.3078215,8.92307692 C63.1400535,8.92307692 63,9.06089354 63,9.23089846 L63,19.6921785 C63,19.8599465 63.1378166,20 63.3078215,20 L73.7691015,20 C73.9368695,20 74.0769231,19.8621834 74.0769231,19.6921785 L74.0769231,15.0769231 L78.6921785,15.0769231 C78.8599465,15.0769231 79,14.9391065 79,14.7691015 L79,4.30782154 C79,4.14005354 78.8621834,4 78.6921785,4 L68.2308985,4 C68.0631305,4 67.9230769,4.13781662 67.9230769,4.30782154 L67.9230769,8.92307692 L63.3078215,8.92307692 Z M67.954375,9.74 L67.954375,14.7546035 C67.954375,14.9208532 68.0857731,15.055625 68.2553965,15.055625 L73.27,15.055625 L73.27,19.19 L63.82,19.19 L63.82,9.74 L67.954375,9.74 Z M78.19,4.82 L78.19,14.27 L74.055625,14.27 L74.055625,9.25539648 C74.055625,9.08914677 73.9242269,8.954375 73.7546035,8.954375 L68.74,8.954375 L68.74,4.82 L78.19,4.82 Z M73.26,9.74 L73.26,14.26 L68.74,14.26 L68.74,9.74 L73.26,9.74 Z" id="diff" transform="translate(71.000000, 12.000000) scale(-1, 1) translate(-71.000000, -12.000000) "></path>
        </g>
    </g>
</svg>
