<?xml version="1.0" encoding="UTF-8"?>
<svg width="16px" height="16px" viewBox="0 0 16 16" version="1.1" xmlns="http://www.w3.org/2000/svg" xmlns:xlink="http://www.w3.org/1999/xlink">
    <!-- Generator: Sketch 52.2 (67145) - http://www.bohemiancoding.com/sketch -->
    <title>magnifying-glass</title>
    <desc>Created with Sketch.</desc>
    <g id="Page-1" stroke="none" stroke-width="1" fill="none" fill-rule="evenodd">
        <g id="Artboard" transform="translate(-34.000000, -4.000000)" fill="currentColor" fill-rule="nonzero">
            <path d="M43.7905173,4 C40.3643598,4 37.5810346,6.78377748 37.5810346,10.2104907 C37.5810346,11.7323025 38.1305223,13.1263038 39.0404573,14.2065169 L34.1794146,19.0683488 C34.0308816,19.2000119 33.9678367,19.4033384 34.0158212,19.5959549 C34.0638057,19.7885714 34.214864,19.9385433 34.4077982,19.9851128 C34.6007323,20.0316823 34.803555,19.9671284 34.934097,19.8176037 L39.7951397,14.9557718 C40.8755594,15.8672391 42.2676619,16.4209814 43.7905173,16.4209814 C47.2166751,16.4209814 50,13.6372022 50,10.2104907 C50,6.78377748 47.2166751,4 43.7905173,4 Z M43.7905173,5.05450691 C46.6408717,5.05450691 48.9456642,7.35967412 48.9456642,10.2104907 C48.9456642,13.0613126 46.6408717,15.3664745 43.7905173,15.3664745 C40.9401629,15.3664745 38.6353704,13.0613126 38.6353704,10.2104907 C38.6353704,7.35967412 40.9401629,5.05450691 43.7905173,5.05450691 Z" id="magnifying-glass" transform="translate(42.000000, 12.000000) scale(-1, 1) translate(-42.000000, -12.000000) "></path>
        </g>
    </g>
</svg>
