<?xml version="1.0" encoding="UTF-8"?>
<svg width="16px" height="16px" viewBox="0 0 16 16" version="1.1" xmlns="http://www.w3.org/2000/svg" xmlns:xlink="http://www.w3.org/1999/xlink">
    <!-- Generator: Sketch 52.2 (67145) - http://www.bohemiancoding.com/sketch -->
    <title>target</title>
    <desc>Created with Sketch.</desc>
    <g id="Page-1" stroke="none" stroke-width="1" fill="none" fill-rule="evenodd">
        <g id="Artboard" transform="translate(-5.000000, -4.000000)" fill="currentColor" fill-rule="nonzero">
            <path d="M21,11.7150127 L19.778626,11.7150127 C19.6361323,8.19338422 16.8066158,5.36386768 13.2849873,5.22137405 L13.2849873,4 L12.7150127,4 L12.7150127,5.22137405 C9.19338422,5.36386768 6.36386768,8.19338422 6.22137405,11.7150127 L5,11.7150127 L5,12.2849873 L6.22137405,12.2849873 C6.36386768,15.8066158 9.19338422,18.6361323 12.7150127,18.778626 L12.7150127,20 L13.2849873,20 L13.2849873,18.778626 C16.8066158,18.6361323 19.6361323,15.8066158 19.778626,12.2849873 L21,12.2849873 L21,11.7150127 Z M18.9440204,11.7150127 L17.0101781,11.7150127 C16.8676845,9.72010178 15.2798982,8.13231552 13.2849873,7.98982188 L13.2849873,6.05597964 C16.3384224,6.19847328 18.8015267,8.66157761 18.9440204,11.7150127 Z M16.1755725,12.2849873 C16.0330789,13.8117048 14.8117048,15.0330789 13.2849873,15.1755725 L13.2849873,13.3231552 L12.7150127,13.3231552 L12.7150127,15.1755725 C11.1882952,15.0330789 9.96692112,13.8117048 9.82442748,12.2849873 L11.6768448,12.2849873 L11.6768448,11.7150127 L9.82442748,11.7150127 C9.96692112,10.1882952 11.1882952,8.96692112 12.7150127,8.82442748 L12.7150127,10.6768448 L13.2849873,10.6768448 L13.2849873,8.82442748 C14.8117048,8.96692112 16.0330789,10.1882952 16.1755725,11.7150127 L14.3231552,11.7150127 L14.3231552,12.2849873 L16.1755725,12.2849873 Z M12.7150127,6.05597964 L12.7150127,7.98982188 C10.7201018,8.13231552 9.13231552,9.72010178 8.98982188,11.7150127 L7.05597964,11.7150127 C7.19847328,8.66157761 9.66157761,6.19847328 12.7150127,6.05597964 Z M7.05597964,12.2849873 L8.98982188,12.2849873 C9.13231552,14.2798982 10.7201018,15.8676845 12.7150127,16.0101781 L12.7150127,17.9440204 C9.66157761,17.8015267 7.19847328,15.3384224 7.05597964,12.2849873 Z M13.2849873,17.9440204 L13.2849873,16.0101781 C15.2798982,15.8676845 16.8676845,14.2798982 17.0101781,12.2849873 L18.9440204,12.2849873 C18.8015267,15.3384224 16.3384224,17.8015267 13.2849873,17.9440204 Z" id="target"></path>
        </g>
    </g>
</svg>
