<?xml version="1.0" standalone="no"?>
<!DOCTYPE svg PUBLIC "-//W3C//DTD SVG 20010904//EN"
 "http://www.w3.org/TR/2001/REC-SVG-20010904/DTD/svg10.dtd">
<svg version="1.0" xmlns="http://www.w3.org/2000/svg"
 width="512.000000pt" height="512.000000pt" viewBox="0 0 512.000000 512.000000"
 preserveAspectRatio="xMidYMid meet">
<metadata>
Created by potrace 1.11, written by Peter Selinger 2001-2013
</metadata>
<g transform="translate(0.000000,512.000000) scale(0.100000,-0.100000)"
fill="#000000" stroke="none">
<path d="M1065 4213 c-36 -11 -65 -31 -110 -77 -101 -101 -94 -15 -92 -1121
l2 -960 27 -51 c44 -84 137 -154 223 -168 17 -2 177 -5 357 -5 l327 -1 3 -337
c3 -331 4 -339 27 -390 27 -61 93 -126 159 -156 l47 -22 965 0 965 0 57 28
c65 32 121 89 152 156 21 46 21 46 21 1011 l0 965 -22 47 c-29 63 -87 124
-148 157 l-50 26 -355 3 c-195 2 -356 5 -358 6 -1 2 -4 154 -5 337 -2 325 -3
335 -25 384 -29 63 -83 119 -147 153 l-50 27 -960 2 c-835 1 -966 -1 -1010
-14z m1810 -628 l0 -260 -425 -5 c-418 -5 -426 -5 -471 -28 -84 -42 -160 -137
-173 -217 -2 -16 -5 -217 -5 -445 l-1 -416 -277 1 -278 0 -1 816 -1 816 816
-1 816 -1 0 -260z m0 -1010 l0 -360 -345 0 -345 0 -1 361 -1 361 346 -1 346
-1 0 -360z m940 -455 l0 -815 -815 0 -815 0 -1 262 -1 262 421 3 421 3 58 29
c67 34 120 89 151 155 20 44 21 61 23 451 1 223 2 419 3 436 l0 32 278 -2 277
-1 0 -815z"/>
</g>
</svg>
