<?xml version="1.0" standalone="no"?>
<!DOCTYPE svg PUBLIC "-//W3C//DTD SVG 20010904//EN"
 "http://www.w3.org/TR/2001/REC-SVG-20010904/DTD/svg10.dtd">
<svg version="1.0" xmlns="http://www.w3.org/2000/svg"
 width="512.000000pt" height="512.000000pt" viewBox="0 0 512.000000 512.000000"
 preserveAspectRatio="xMidYMid meet">
<metadata>
Created by potrace 1.11, written by Peter Selinger 2001-2013
</metadata>
<g transform="translate(0.000000,512.000000) scale(0.100000,-0.100000)"
fill="#000000" stroke="none">
<path d="M1005 4341 c-99 -24 -180 -98 -218 -201 -16 -40 -17 -126 -15 -1005
l3 -960 27 -50 c34 -64 90 -118 153 -147 50 -23 52 -23 555 -26 277 -2 506 -4
507 -6 2 -1 4 -229 6 -507 3 -399 6 -512 17 -543 22 -59 96 -135 165 -168 l60
-28 965 2 965 3 51 27 c62 33 117 88 146 148 l23 45 0 975 0 975 -27 50 c-34
64 -90 118 -153 147 -50 23 -51 23 -554 25 -277 1 -505 4 -507 5 -2 2 -4 231
-6 508 l-3 505 -27 55 c-35 71 -89 123 -160 154 l-58 26 -942 -1 c-519 -1
-956 -4 -973 -8z m1780 -808 l1 -433 -71 0 c-389 -2 -460 -5 -505 -26 -66 -31
-126 -89 -157 -152 l-28 -57 0 -262 c0 -145 -2 -264 -5 -264 -3 -1 -199 -3
-436 -3 l-431 -2 0 817 0 816 816 -1 816 -1 0 -432z m0 -1008 l0 -190 -190 0
-190 0 -1 185 c0 102 0 187 2 190 1 3 87 5 191 5 l188 0 0 -190z m1251 -626
l1 -816 -814 0 c-447 0 -814 3 -814 6 -1 3 -2 198 -3 433 l-1 427 265 3 c258
3 266 4 315 28 68 33 120 83 150 144 33 68 33 75 34 351 l1 240 433 0 432 0 1
-816z"/>
</g>
</svg>
